<svg width="32" height="32" viewBox="0 0 32 32" fill="none" xmlns="http://www.w3.org/2000/svg">
  <defs>
    <linearGradient id="glow" x1="0%" y1="0%" x2="100%" y2="100%">
      <stop offset="0%" stop-color="#06b6d4"/>
      <stop offset="100%" stop-color="#10b981"/>
    </linearGradient>
    <filter id="blur">
      <feGaussianBlur in="SourceGraphic" stdDeviation="0.5"/>
    </filter>
  </defs>
  <!-- Edges -->
  <line x1="8" y1="8" x2="24" y2="8" stroke="url(#glow)" stroke-width="1.5" opacity="0.6"/>
  <line x1="8" y1="8" x2="8" y2="24" stroke="url(#glow)" stroke-width="1.5" opacity="0.6"/>
  <line x1="8" y1="8" x2="16" y2="18" stroke="url(#glow)" stroke-width="1.5" opacity="0.6"/>
  <line x1="24" y1="8" x2="16" y2="18" stroke="url(#glow)" stroke-width="1.5" opacity="0.6"/>
  <line x1="8" y1="24" x2="16" y2="18" stroke="url(#glow)" stroke-width="1.5" opacity="0.6"/>
  <line x1="8" y1="24" x2="24" y2="24" stroke="url(#glow)" stroke-width="1.5" opacity="0.6"/>
  <line x1="24" y1="8" x2="24" y2="24" stroke="url(#glow)" stroke-width="1.5" opacity="0.6"/>
  <line x1="16" y1="18" x2="24" y2="24" stroke="url(#glow)" stroke-width="1.5" opacity="0.6"/>
  <!-- Nodes -->
  <circle cx="8" cy="8" r="3" fill="#06b6d4" filter="url(#blur)"/>
  <circle cx="8" cy="8" r="2.5" fill="#06b6d4"/>
  <circle cx="24" cy="8" r="3" fill="#10b981" filter="url(#blur)"/>
  <circle cx="24" cy="8" r="2.5" fill="#10b981"/>
  <circle cx="16" cy="18" r="3.5" fill="url(#glow)" filter="url(#blur)"/>
  <circle cx="16" cy="18" r="3" fill="url(#glow)"/>
  <circle cx="8" cy="24" r="3" fill="#06b6d4" filter="url(#blur)"/>
  <circle cx="8" cy="24" r="2.5" fill="#06b6d4"/>
  <circle cx="24" cy="24" r="3" fill="#10b981" filter="url(#blur)"/>
  <circle cx="24" cy="24" r="2.5" fill="#10b981"/>
</svg>
